<svg t="1581910833933" class="icon" viewBox="0 0 1024 1024" version="1.1" xmlns="http://www.w3.org/2000/svg" p-id="612" width="200" height="200"><path d="M512 0C229.2224 0 0 229.2224 0 512s229.2224 512 512 512 512-229.2224 512-512S794.7776 0 512 0z m111.9744 993.7408c-25.3952 6.2464-52.3264 10.5984-80.6912 12.1344l0.0512-0.8704c-9.6768 0.5632-19.4048 0.8704-29.2352 0.8704-11.0592 0-22.0672-0.4608-32.9216-1.1776l-0.4096 1.1776c-48.7424-2.6624-93.2864-13.4144-133.0688-28.416-62.3616-22.1696-118.1696-56.4736-164.1984-99.7376-34.1504-29.9008-52.5312-53.1968-52.5312-53.1968l131.7888-54.528c131.7888-54.528 143.2064-108.032 143.2064-108.032v-14.848c-22.784-14.848-27.7504-71.3728-27.7504-71.3728v-29.7472c-30.208-7.424-41.6256-45.1072-49.5616-86.7328s11.4176-39.168 11.4176-39.168-2.4576-39.6288-7.424-102.5536c0-109.5168 55.3472-127.6928 105.5232-150.1184 101.0688-42.8544 157.1328 0.2048 177.408 22.016 9.8304 4.1984 19.4048 8.7552 28.2624 14.4896 7.0144 3.0208 12.8512 7.936 17.6128 14.336 18.0224 18.7392 30.0544 47.8208 30.0544 99.328-4.9664 62.9248-7.424 102.5536-7.424 102.5536s19.3024-2.4576 11.4176 39.168c-7.8848 41.3696-19.2 78.7456-48.9984 86.528l-0.2048 1.1776-0.3584 1.1264v27.648s-4.9664 56.4736-27.7504 71.3728v14.848s11.4176 53.504 143.2064 108.032l131.7888 54.528s-1.536 1.8944-4.352 5.2224h0.256c-63.6928 80.4864-156.9792 139.6736-265.1136 163.9424z" p-id="613" fill="#37b68d"></path></svg>